<?xml version="1.0" standalone="no"?>
<!DOCTYPE svg PUBLIC "-//W3C//DTD SVG 20010904//EN"
 "http://www.w3.org/TR/2001/REC-SVG-20010904/DTD/svg10.dtd">
<svg version="1.0" xmlns="http://www.w3.org/2000/svg"
 width="512.000000pt" height="512.000000pt" viewBox="0 0 512.000000 512.000000"
 preserveAspectRatio="xMidYMid meet">
<metadata>
Created by potrace 1.11, written by Peter Selinger 2001-2013
</metadata>
<g transform="translate(0.000000,512.000000) scale(0.100000,-0.100000)"
fill="#000000" stroke="none">
<path d="M1675 5098 c-14 -64 -35 -156 -38 -178 -3 -14 -17 -81 -32 -150 -15
-69 -29 -136 -31 -150 -3 -14 -14 -68 -25 -120 -11 -52 -23 -106 -25 -120 -3
-14 -11 -57 -20 -96 l-15 -71 -52 -23 c-29 -13 -88 -39 -132 -60 -44 -20 -135
-61 -202 -90 l-123 -54 0 -71 0 -72 115 -37 115 -37 2 -227 3 -227 145 0 144
0 1 -228 c0 -142 -4 -232 -10 -236 -8 -6 -75 -22 -285 -66 -56 -12 -268 -58
-282 -61 -29 -6 -104 -23 -133 -28 -11 -2 -53 -12 -94 -21 -40 -9 -80 -18 -90
-20 -24 -4 -28 10 84 -350 107 -345 105 -337 105 -352 0 -7 -4 -13 -9 -13 -5
0 -96 -42 -203 -93 -106 -52 -212 -102 -235 -112 -23 -10 -43 -25 -45 -34 -2
-9 -4 -88 -3 -176 0 -175 -5 -160 58 -164 15 -1 17 -12 17 -76 l0 -75 -38 0
-38 0 1 -72 c1 -70 2 -73 25 -75 14 0 31 -1 38 -2 8 -1 12 -23 12 -76 l0 -75
-38 0 -37 0 0 -452 0 -453 2103 -2 2102 -3 1 33 c1 43 1 942 0 990 -1 31 -4
37 -23 37 -17 0 -11 7 26 31 138 92 244 244 282 406 15 66 21 223 10 272 -32
143 -87 249 -177 344 l-68 72 -25 -30 c-23 -28 -26 -29 -48 -16 -13 8 -46 28
-75 43 l-52 29 15 35 c14 33 13 35 -8 43 -47 17 -158 39 -209 40 l-27 1 53
158 c45 137 50 158 36 164 -13 6 -610 135 -701 151 -14 3 -43 10 -65 15 -22 6
-56 13 -76 16 -74 11 -69 -7 -69 250 l0 233 138 -2 c75 0 144 2 152 6 13 6 16
39 15 223 0 119 2 220 5 224 3 4 52 23 110 42 l105 35 0 70 0 70 -248 111
c-136 61 -252 115 -257 120 -5 5 -11 23 -14 39 -3 17 -17 86 -31 155 -15 69
-29 136 -31 150 -11 58 -104 517 -109 538 l-5 22 -730 0 -730 0 -5 -22z"/>
<path d="M309 3916 c-1 0 -2 -34 -3 -73 l-2 -73 33 -1 c127 -4 120 -9 118 74
l-1 72 -72 1 c-40 1 -73 1 -73 0z"/>
<path d="M4360 3844 l0 -73 38 -3 c20 -2 54 -1 75 1 l37 3 0 73 0 73 -75 -1
-75 0 0 -73z"/>
<path d="M608 3538 l-3 -73 -61 -1 c-33 0 -66 -4 -72 -8 -6 -4 -11 -35 -10
-77 l1 -70 31 1 c17 1 50 2 74 1 l42 -1 0 -72 0 -73 67 2 c38 0 71 2 76 2 4 1
7 34 7 74 l0 72 72 0 72 0 1 73 1 72 -30 1 c-17 1 -50 1 -73 0 l-43 -2 0 76 0
75 -75 0 -74 0 -3 -72z"/>
<path d="M4059 3608 c0 -2 -1 -34 -2 -73 l-2 -70 -60 -2 c-33 0 -66 -2 -72 -2
-9 -1 -13 -23 -13 -77 0 -66 2 -75 18 -73 9 1 42 1 73 0 l56 -1 0 -72 -1 -72
72 -1 c40 0 73 2 73 5 1 3 3 33 4 68 2 35 6 66 9 70 4 4 36 5 72 4 35 -2 64 1
65 5 0 4 1 38 3 76 2 75 9 70 -91 68 l-53 0 -1 37 c-1 20 -1 54 -1 75 l1 37
-74 0 c-41 0 -75 -1 -76 -2z"/>
</g>
</svg>
